<svg xmlns="http://www.w3.org/2000/svg" xmlns:xlink="http://www.w3.org/1999/xlink" version="1.1" class="marks" width="1313" height="464" viewBox="0 0 1313 464"><rect width="1313" height="464" fill="white"/><g fill="none" stroke-miterlimit="10" transform="translate(53,27)"><g class="mark-group role-frame root" role="graphics-object" aria-roledescription="group mark container"><g transform="translate(0,0)"><path class="background" aria-hidden="true" d="M0.5,0.5h600v400h-600Z" stroke="#ddd"/><g><g class="mark-group role-axis" role="graphics-symbol" aria-roledescription="axis" aria-label="X-axis titled 'Song Mood' for a linear scale with values from 0% to 100%"><g transform="translate(0.5,400.5)"><path class="background" aria-hidden="true" d="M0,0h0v0h0Z" pointer-events="none"/><g><g class="mark-rule role-axis-tick" pointer-events="none"><line transform="translate(0,0)" x2="0" y2="5" stroke="#888" stroke-width="1" opacity="1"/><line transform="translate(30,0)" x2="0" y2="5" stroke="#888" stroke-width="1" opacity="1"/><line transform="translate(60,0)" x2="0" y2="5" stroke="#888" stroke-width="1" opacity="1"/><line transform="translate(90,0)" x2="0" y2="5" stroke="#888" stroke-width="1" opacity="1"/><line transform="translate(120,0)" x2="0" y2="5" stroke="#888" stroke-width="1" opacity="1"/><line transform="translate(150,0)" x2="0" y2="5" stroke="#888" stroke-width="1" opacity="1"/><line transform="translate(180,0)" x2="0" y2="5" stroke="#888" stroke-width="1" opacity="1"/><line transform="translate(210,0)" x2="0" y2="5" stroke="#888" stroke-width="1" opacity="1"/><line transform="translate(240,0)" x2="0" y2="5" stroke="#888" stroke-width="1" opacity="1"/><line transform="translate(270,0)" x2="0" y2="5" stroke="#888" stroke-width="1" opacity="1"/><line transform="translate(300,0)" x2="0" y2="5" stroke="#888" stroke-width="1" opacity="1"/><line transform="translate(330,0)" x2="0" y2="5" stroke="#888" stroke-width="1" opacity="1"/><line transform="translate(360,0)" x2="0" y2="5" stroke="#888" stroke-width="1" opacity="1"/><line transform="translate(390,0)" x2="0" y2="5" stroke="#888" stroke-width="1" opacity="1"/><line transform="translate(420,0)" x2="0" y2="5" stroke="#888" stroke-width="1" opacity="1"/><line transform="translate(450,0)" x2="0" y2="5" stroke="#888" stroke-width="1" opacity="1"/><line transform="translate(480,0)" x2="0" y2="5" stroke="#888" stroke-width="1" opacity="1"/><line transform="translate(510,0)" x2="0" y2="5" stroke="#888" stroke-width="1" opacity="1"/><line transform="translate(540,0)" x2="0" y2="5" stroke="#888" stroke-width="1" opacity="1"/><line transform="translate(570,0)" x2="0" y2="5" stroke="#888" stroke-width="1" opacity="1"/><line transform="translate(600,0)" x2="0" y2="5" stroke="#888" stroke-width="1" opacity="1"/></g><g class="mark-text role-axis-label" pointer-events="none"><text text-anchor="start" transform="translate(0,15)" font-family="sans-serif" font-size="10px" fill="#000" opacity="1">0%</text><text text-anchor="middle" transform="translate(30,15)" font-family="sans-serif" font-size="10px" fill="#000" opacity="0">5%</text><text text-anchor="middle" transform="translate(60,15)" font-family="sans-serif" font-size="10px" fill="#000" opacity="1">10%</text><text text-anchor="middle" transform="translate(90,15)" font-family="sans-serif" font-size="10px" fill="#000" opacity="0">15%</text><text text-anchor="middle" transform="translate(120,15)" font-family="sans-serif" font-size="10px" fill="#000" opacity="1">20%</text><text text-anchor="middle" transform="translate(150,15)" font-family="sans-serif" font-size="10px" fill="#000" opacity="0">25%</text><text text-anchor="middle" transform="translate(180,15)" font-family="sans-serif" font-size="10px" fill="#000" opacity="1">30%</text><text text-anchor="middle" transform="translate(210,15)" font-family="sans-serif" font-size="10px" fill="#000" opacity="0">35%</text><text text-anchor="middle" transform="translate(240,15)" font-family="sans-serif" font-size="10px" fill="#000" opacity="1">40%</text><text text-anchor="middle" transform="translate(270,15)" font-family="sans-serif" font-size="10px" fill="#000" opacity="0">45%</text><text text-anchor="middle" transform="translate(300,15)" font-family="sans-serif" font-size="10px" fill="#000" opacity="1">50%</text><text text-anchor="middle" transform="translate(330,15)" font-family="sans-serif" font-size="10px" fill="#000" opacity="0">55%</text><text text-anchor="middle" transform="translate(360,15)" font-family="sans-serif" font-size="10px" fill="#000" opacity="1">60%</text><text text-anchor="middle" transform="translate(390,15)" font-family="sans-serif" font-size="10px" fill="#000" opacity="0">65%</text><text text-anchor="middle" transform="translate(420,15)" font-family="sans-serif" font-size="10px" fill="#000" opacity="1">70%</text><text text-anchor="middle" transform="translate(450,15)" font-family="sans-serif" font-size="10px" fill="#000" opacity="0">75%</text><text text-anchor="middle" transform="translate(480,15)" font-family="sans-serif" font-size="10px" fill="#000" opacity="1">80%</text><text text-anchor="middle" transform="translate(510,15)" font-family="sans-serif" font-size="10px" fill="#000" opacity="0">85%</text><text text-anchor="middle" transform="translate(540,15)" font-family="sans-serif" font-size="10px" fill="#000" opacity="1">90%</text><text text-anchor="middle" transform="translate(570,15)" font-family="sans-serif" font-size="10px" fill="#000" opacity="0">95%</text><text text-anchor="end" transform="translate(600,15)" font-family="sans-serif" font-size="10px" fill="#000" opacity="1">100%</text></g><g class="mark-rule role-axis-domain" pointer-events="none"><line transform="translate(0,0)" x2="600" y2="0" stroke="#888" stroke-width="1" opacity="1"/></g><g class="mark-text role-axis-title" pointer-events="none"><text text-anchor="middle" transform="translate(300,30)" font-family="sans-serif" font-size="11px" font-weight="bold" fill="#000" opacity="1">Song Mood</text></g></g><path class="foreground" aria-hidden="true" d="" pointer-events="none" display="none"/></g></g><g class="mark-group role-axis" role="graphics-symbol" aria-roledescription="axis" aria-label="Y-axis titled 'Dance-ometer' for a linear scale with values from 0% to 100%"><g transform="translate(0.5,0.5)"><path class="background" aria-hidden="true" d="M0,0h0v0h0Z" pointer-events="none"/><g><g class="mark-rule role-axis-tick" pointer-events="none"><line transform="translate(0,400)" x2="-5" y2="0" stroke="#888" stroke-width="1" opacity="1"/><line transform="translate(0,360)" x2="-5" y2="0" stroke="#888" stroke-width="1" opacity="1"/><line transform="translate(0,320)" x2="-5" y2="0" stroke="#888" stroke-width="1" opacity="1"/><line transform="translate(0,280)" x2="-5" y2="0" stroke="#888" stroke-width="1" opacity="1"/><line transform="translate(0,240)" x2="-5" y2="0" stroke="#888" stroke-width="1" opacity="1"/><line transform="translate(0,200)" x2="-5" y2="0" stroke="#888" stroke-width="1" opacity="1"/><line transform="translate(0,160)" x2="-5" y2="0" stroke="#888" stroke-width="1" opacity="1"/><line transform="translate(0,120)" x2="-5" y2="0" stroke="#888" stroke-width="1" opacity="1"/><line transform="translate(0,80)" x2="-5" y2="0" stroke="#888" stroke-width="1" opacity="1"/><line transform="translate(0,40)" x2="-5" y2="0" stroke="#888" stroke-width="1" opacity="1"/><line transform="translate(0,0)" x2="-5" y2="0" stroke="#888" stroke-width="1" opacity="1"/></g><g class="mark-text role-axis-label" pointer-events="none"><text text-anchor="end" transform="translate(-7,403)" font-family="sans-serif" font-size="10px" fill="#000" opacity="1">0%</text><text text-anchor="end" transform="translate(-7,363)" font-family="sans-serif" font-size="10px" fill="#000" opacity="1">10%</text><text text-anchor="end" transform="translate(-7,323)" font-family="sans-serif" font-size="10px" fill="#000" opacity="1">20%</text><text text-anchor="end" transform="translate(-7,283)" font-family="sans-serif" font-size="10px" fill="#000" opacity="1">30%</text><text text-anchor="end" transform="translate(-7,243)" font-family="sans-serif" font-size="10px" fill="#000" opacity="1">40%</text><text text-anchor="end" transform="translate(-7,203)" font-family="sans-serif" font-size="10px" fill="#000" opacity="1">50%</text><text text-anchor="end" transform="translate(-7,163)" font-family="sans-serif" font-size="10px" fill="#000" opacity="1">60%</text><text text-anchor="end" transform="translate(-7,123.00000000000001)" font-family="sans-serif" font-size="10px" fill="#000" opacity="1">70%</text><text text-anchor="end" transform="translate(-7,82.99999999999999)" font-family="sans-serif" font-size="10px" fill="#000" opacity="1">80%</text><text text-anchor="end" transform="translate(-7,42.99999999999999)" font-family="sans-serif" font-size="10px" fill="#000" opacity="1">90%</text><text text-anchor="end" transform="translate(-7,3)" font-family="sans-serif" font-size="10px" fill="#000" opacity="1">100%</text></g><g class="mark-rule role-axis-domain" pointer-events="none"><line transform="translate(0,400)" x2="0" y2="-400" stroke="#888" stroke-width="1" opacity="1"/></g><g class="mark-text role-axis-title" pointer-events="none"><text text-anchor="middle" transform="translate(-36.576171875,200) rotate(-90) translate(0,-2)" font-family="sans-serif" font-size="11px" font-weight="bold" fill="#000" opacity="1">Dance-ometer</text></g></g><path class="foreground" aria-hidden="true" d="" pointer-events="none" display="none"/></g></g><g class="mark-symbol role-mark layer_0_marks" role="graphics-symbol" aria-roledescription="symbol mark container"><a xlink:href="https://www.youtube.com/embed/xvZqHgFz51I"><path transform="translate(171.60000000000002,66.80000000000001)" d="M2.7386127875258306,0A2.7386127875258306,2.7386127875258306,0,1,1,-2.7386127875258306,0A2.7386127875258306,2.7386127875258306,0,1,1,2.7386127875258306,0" stroke="rgb(218, 105, 177)" stroke-width="2" opacity="0.2"/></a><a xlink:href="https://www.youtube.com/embed/iWga74teAN4"><path transform="translate(103.80000000000001,64.80000000000001)" d="M2.7386127875258306,0A2.7386127875258306,2.7386127875258306,0,1,1,-2.7386127875258306,0A2.7386127875258306,2.7386127875258306,0,1,1,2.7386127875258306,0" stroke="rgb(216, 112, 180)" stroke-width="2" opacity="0.2"/></a><a xlink:href="https://www.youtube.com/embed/YlxMgXacV-A"><path transform="translate(158.4,78.39999999999998)" d="M2.7386127875258306,0A2.7386127875258306,2.7386127875258306,0,1,1,-2.7386127875258306,0A2.7386127875258306,2.7386127875258306,0,1,1,2.7386127875258306,0" stroke="rgb(225, 65, 150)" stroke-width="2" opacity="0.2"/></a><a xlink:href="https://www.youtube.com/embed/2F2GlWMb_l4"><path transform="translate(184.8,104.39999999999996)" d="M2.7386127875258306,0A2.7386127875258306,2.7386127875258306,0,1,1,-2.7386127875258306,0A2.7386127875258306,2.7386127875258306,0,1,1,2.7386127875258306,0" stroke="rgb(221, 93, 169)" stroke-width="2" opacity="0.2"/></a><a xlink:href="https://www.youtube.com/embed/6HP04nfUi4g"><path transform="translate(462,101.2)" d="M2.7386127875258306,0A2.7386127875258306,2.7386127875258306,0,1,1,-2.7386127875258306,0A2.7386127875258306,2.7386127875258306,0,1,1,2.7386127875258306,0" stroke="rgb(209, 25, 102)" stroke-width="2" opacity="0.2"/></a><a xlink:href="https://www.youtube.com/embed/eIaR1IsAGwY"><path transform="translate(406.20000000000005,58.80000000000001)" d="M2.7386127875258306,0A2.7386127875258306,2.7386127875258306,0,1,1,-2.7386127875258306,0A2.7386127875258306,2.7386127875258306,0,1,1,2.7386127875258306,0" stroke="rgb(225, 69, 153)" stroke-width="2" opacity="0.2"/></a><a xlink:href="https://www.youtube.com/watch/MTrKkqE9p1o"><path transform="translate(319.20000000000005,194.4)" d="M2.7386127875258306,0A2.7386127875258306,2.7386127875258306,0,1,1,-2.7386127875258306,0A2.7386127875258306,2.7386127875258306,0,1,1,2.7386127875258306,0" stroke="rgb(220, 99, 173)" stroke-width="2" opacity="0.2"/></a><a xlink:href="https://www.youtube.com/embed/XyCn8IC5RpE"><path transform="translate(329.4,185.2)" d="M2.7386127875258306,0A2.7386127875258306,2.7386127875258306,0,1,1,-2.7386127875258306,0A2.7386127875258306,2.7386127875258306,0,1,1,2.7386127875258306,0" stroke="rgb(219, 101, 174)" stroke-width="2" opacity="0.2"/></a><a xlink:href="https://www.youtube.com/embed/IST6qRfVqwY"><path transform="translate(456.59999999999997,53.2)" d="M2.7386127875258306,0A2.7386127875258306,2.7386127875258306,0,1,1,-2.7386127875258306,0A2.7386127875258306,2.7386127875258306,0,1,1,2.7386127875258306,0" stroke="rgb(211, 26, 104)" stroke-width="2" opacity="0.2"/></a><a xlink:href="https://www.youtube.com/embed/-Aj92HNB8Tc"><path transform="translate(499.79999999999995,80.39999999999998)" d="M2.7386127875258306,0A2.7386127875258306,2.7386127875258306,0,1,1,-2.7386127875258306,0A2.7386127875258306,2.7386127875258306,0,1,1,2.7386127875258306,0" stroke="rgb(199, 18, 90)" stroke-width="2" opacity="0.2"/></a><a xlink:href="https://www.youtube.com/embed/uxpDa-c-4Mc"><path transform="translate(338.4,41.60000000000004)" d="M2.7386127875258306,0A2.7386127875258306,2.7386127875258306,0,1,1,-2.7386127875258306,0A2.7386127875258306,2.7386127875258306,0,1,1,2.7386127875258306,0" stroke="rgb(225, 47, 134)" stroke-width="2" opacity="0.2"/></a><a xlink:href="https://www.youtube.com/embed/2y-edrXIZjA"><path transform="translate(209.39999999999998,118.39999999999998)" d="M2.7386127875258306,0A2.7386127875258306,2.7386127875258306,0,1,1,-2.7386127875258306,0A2.7386127875258306,2.7386127875258306,0,1,1,2.7386127875258306,0" stroke="rgb(218, 106, 177)" stroke-width="2" opacity="0.2"/></a><a xlink:href="https://www.youtube.com/embed/0Hegd4xNfRo"><path transform="translate(118.19999999999999,136.80000000000004)" d="M2.7386127875258306,0A2.7386127875258306,2.7386127875258306,0,1,1,-2.7386127875258306,0A2.7386127875258306,2.7386127875258306,0,1,1,2.7386127875258306,0" stroke="rgb(210, 173, 212)" stroke-width="2" opacity="0.2"/></a><a xlink:href="https://www.youtube.com/embed/3TsYIQv0sX8"><path transform="translate(188.4,83.99999999999999)" d="M2.7386127875258306,0A2.7386127875258306,2.7386127875258306,0,1,1,-2.7386127875258306,0A2.7386127875258306,2.7386127875258306,0,1,1,2.7386127875258306,0" stroke="rgb(220, 35, 119)" stroke-width="2" opacity="0.2"/></a><a xlink:href="https://www.youtube.com/embed/MKiLZEoAKgQ"><path transform="translate(96,106)" d="M2.7386127875258306,0A2.7386127875258306,2.7386127875258306,0,1,1,-2.7386127875258306,0A2.7386127875258306,2.7386127875258306,0,1,1,2.7386127875258306,0" stroke="rgb(216, 112, 181)" stroke-width="2" opacity="0.2"/></a><a xlink:href="https://www.youtube.com/watch/MTrKkqE9p1o"><path transform="translate(277.2,229.2)" d="M2.7386127875258306,0A2.7386127875258306,2.7386127875258306,0,1,1,-2.7386127875258306,0A2.7386127875258306,2.7386127875258306,0,1,1,2.7386127875258306,0" stroke="rgb(221, 95, 171)" stroke-width="2" opacity="0.2"/></a><a xlink:href="https://www.youtube.com/embed/gJ6yX-CWncw"><path transform="translate(202.20000000000002,60.39999999999996)" d="M2.7386127875258306,0A2.7386127875258306,2.7386127875258306,0,1,1,-2.7386127875258306,0A2.7386127875258306,2.7386127875258306,0,1,1,2.7386127875258306,0" stroke="rgb(216, 113, 181)" stroke-width="2" opacity="0.2"/></a><a xlink:href="https://www.youtube.com/embed/Ypgq0qdgVZA"><path transform="translate(370.8,148.8)" d="M2.7386127875258306,0A2.7386127875258306,2.7386127875258306,0,1,1,-2.7386127875258306,0A2.7386127875258306,2.7386127875258306,0,1,1,2.7386127875258306,0" stroke="rgb(226, 62, 148)" stroke-width="2" opacity="0.2"/></a><a xlink:href="https://www.youtube.com/embed/ePg1tbia9Bg"><path transform="translate(404.40000000000003,219.59999999999997)" d="M2.7386127875258306,0A2.7386127875258306,2.7386127875258306,0,1,1,-2.7386127875258306,0A2.7386127875258306,2.7386127875258306,0,1,1,2.7386127875258306,0" stroke="rgb(199, 18, 90)" stroke-width="2" opacity="0.2"/></a><a xlink:href="https://www.youtube.com/embed/sZTpLvsYYHw"><path transform="translate(128.4,176.8)" d="M2.7386127875258306,0A2.7386127875258306,2.7386127875258306,0,1,1,-2.7386127875258306,0A2.7386127875258306,2.7386127875258306,0,1,1,2.7386127875258306,0" stroke="rgb(209, 25, 102)" stroke-width="2" opacity="0.2"/></a><a xlink:href="https://www.youtube.com/embed/8pvHZ4ddR-4&amp;list=RD8pvHZ4ddR-4"><path transform="translate(535.8,158.4)" d="M2.7386127875258306,0A2.7386127875258306,2.7386127875258306,0,1,1,-2.7386127875258306,0A2.7386127875258306,2.7386127875258306,0,1,1,2.7386127875258306,0" stroke="rgb(168, 7, 72)" stroke-width="2" opacity="0.2"/></a><a xlink:href="https://www.youtube.com/embed/9so3U_27tVo"><path transform="translate(323.40000000000003,207.20000000000002)" d="M2.7386127875258306,0A2.7386127875258306,2.7386127875258306,0,1,1,-2.7386127875258306,0A2.7386127875258306,2.7386127875258306,0,1,1,2.7386127875258306,0" stroke="rgb(148, 3, 61)" stroke-width="2" opacity="0.2"/></a><a xlink:href="https://www.youtube.com/embed/yF9WPi2XY4c"><path transform="translate(484.20000000000005,130.39999999999998)" d="M2.7386127875258306,0A2.7386127875258306,2.7386127875258306,0,1,1,-2.7386127875258306,0A2.7386127875258306,2.7386127875258306,0,1,1,2.7386127875258306,0" stroke="rgb(187, 13, 82)" stroke-width="2" opacity="0.2"/></a><a xlink:href="https://www.youtube.com/embed/GDZ3Ghq4iJU"><path transform="translate(313.2,208.4)" d="M2.7386127875258306,0A2.7386127875258306,2.7386127875258306,0,1,1,-2.7386127875258306,0A2.7386127875258306,2.7386127875258306,0,1,1,2.7386127875258306,0" stroke="rgb(226, 50, 137)" stroke-width="2" opacity="0.2"/></a><a xlink:href="https://www.youtube.com/embed/_6v445E5hrE"><path transform="translate(488.99999999999994,118.80000000000001)" d="M2.7386127875258306,0A2.7386127875258306,2.7386127875258306,0,1,1,-2.7386127875258306,0A2.7386127875258306,2.7386127875258306,0,1,1,2.7386127875258306,0" stroke="rgb(216, 112, 180)" stroke-width="2" opacity="0.2"/></a><a xlink:href="https://www.youtube.com/embed/T4JtCCWB6Y4"><path transform="translate(569.4000000000001,35.19999999999999)" d="M2.7386127875258306,0A2.7386127875258306,2.7386127875258306,0,1,1,-2.7386127875258306,0A2.7386127875258306,2.7386127875258306,0,1,1,2.7386127875258306,0" stroke="rgb(208, 139, 195)" stroke-width="2" opacity="0.2"/></a><a xlink:href="https://www.youtube.com/embed/TfBL5HPS_jA"><path transform="translate(264,160.4)" d="M2.7386127875258306,0A2.7386127875258306,2.7386127875258306,0,1,1,-2.7386127875258306,0A2.7386127875258306,2.7386127875258306,0,1,1,2.7386127875258306,0" stroke="rgb(225, 76, 159)" stroke-width="2" opacity="0.2"/></a><a xlink:href="https://www.youtube.com/embed/9S0ONyRctyE"><path transform="translate(238.79999999999998,114.00000000000001)" d="M2.7386127875258306,0A2.7386127875258306,2.7386127875258306,0,1,1,-2.7386127875258306,0A2.7386127875258306,2.7386127875258306,0,1,1,2.7386127875258306,0" stroke="rgb(223, 43, 129)" stroke-width="2" opacity="0.2"/></a><a xlink:href="https://www.youtube.com/embed/dCCXq9QB-dQ"><path transform="translate(46.08,160)" d="M2.7386127875258306,0A2.7386127875258306,2.7386127875258306,0,1,1,-2.7386127875258306,0A2.7386127875258306,2.7386127875258306,0,1,1,2.7386127875258306,0" stroke="rgb(217, 111, 180)" stroke-width="2" opacity="0.2"/></a><a xlink:href="https://www.youtube.com/embed/99z1_IMJNl8"><path transform="translate(200.39999999999998,123.60000000000002)" d="M2.7386127875258306,0A2.7386127875258306,2.7386127875258306,0,1,1,-2.7386127875258306,0A2.7386127875258306,2.7386127875258306,0,1,1,2.7386127875258306,0" stroke="rgb(215, 29, 109)" stroke-width="2" opacity="0.2"/></a><a xlink:href="https://www.youtube.com/embed/i380DwcJxxM"><path transform="translate(191.4,177.99999999999997)" d="M2.7386127875258306,0A2.7386127875258306,2.7386127875258306,0,1,1,-2.7386127875258306,0A2.7386127875258306,2.7386127875258306,0,1,1,2.7386127875258306,0" stroke="rgb(226, 49, 137)" stroke-width="2" opacity="0.2"/></a><a xlink:href="https://www.youtube.com/embed/SeWxEH9tb0c"><path transform="translate(114.60000000000001,107.2)" d="M2.7386127875258306,0A2.7386127875258306,2.7386127875258306,0,1,1,-2.7386127875258306,0A2.7386127875258306,2.7386127875258306,0,1,1,2.7386127875258306,0" stroke="rgb(221, 94, 170)" stroke-width="2" opacity="0.2"/></a><a xlink:href="https://www.youtube.com/embed/JXTc3Choroo"><path transform="translate(119.39999999999999,286.4)" d="M2.7386127875258306,0A2.7386127875258306,2.7386127875258306,0,1,1,-2.7386127875258306,0A2.7386127875258306,2.7386127875258306,0,1,1,2.7386127875258306,0" stroke="rgb(148, 3, 61)" stroke-width="2" opacity="0.2"/></a><a xlink:href="https://www.youtube.com/embed/4ibirZTVXb4"><path transform="translate(174.60000000000002,172.40000000000003)" d="M2.7386127875258306,0A2.7386127875258306,2.7386127875258306,0,1,1,-2.7386127875258306,0A2.7386127875258306,2.7386127875258306,0,1,1,2.7386127875258306,0" stroke="rgb(179, 10, 78)" stroke-width="2" opacity="0.2"/></a><a xlink:href="https://www.youtube.com/embed/AoedK3XcoBE"><path transform="translate(82.80000000000001,212.4)" d="M2.7386127875258306,0A2.7386127875258306,2.7386127875258306,0,1,1,-2.7386127875258306,0A2.7386127875258306,2.7386127875258306,0,1,1,2.7386127875258306,0" stroke="rgb(189, 14, 84)" stroke-width="2" opacity="0.2"/></a><a xlink:href="https://www.youtube.com/embed/a_426RiwST8&amp;feature=player_embedded#!"><path transform="translate(355.20000000000005,257.59999999999997)" d="M2.7386127875258306,0A2.7386127875258306,2.7386127875258306,0,1,1,-2.7386127875258306,0A2.7386127875258306,2.7386127875258306,0,1,1,2.7386127875258306,0" stroke="rgb(175, 8, 75)" stroke-width="2" opacity="0.2"/></a><a xlink:href="https://www.youtube.com/embed/cimoNqiulUE"><path transform="translate(265.2,135.2)" d="M2.7386127875258306,0A2.7386127875258306,2.7386127875258306,0,1,1,-2.7386127875258306,0A2.7386127875258306,2.7386127875258306,0,1,1,2.7386127875258306,0" stroke="rgb(226, 61, 147)" stroke-width="2" opacity="0.2"/></a><a xlink:href="https://www.youtube.com/embed/I4pezRt9boY"><path transform="translate(86.4,256)" d="M2.7386127875258306,0A2.7386127875258306,2.7386127875258306,0,1,1,-2.7386127875258306,0A2.7386127875258306,2.7386127875258306,0,1,1,2.7386127875258306,0" stroke="rgb(212, 126, 188)" stroke-width="2" opacity="0.2"/></a><a xlink:href="https://www.youtube.com/embed/I4pezRt9boY"><path transform="translate(86.4,256)" d="M2.7386127875258306,0A2.7386127875258306,2.7386127875258306,0,1,1,-2.7386127875258306,0A2.7386127875258306,2.7386127875258306,0,1,1,2.7386127875258306,0" stroke="rgb(212, 126, 188)" stroke-width="2" opacity="0.2"/></a><a xlink:href="https://www.youtube.com/embed/DjsvqQUcqCs"><path transform="translate(491.99999999999994,57.2)" d="M2.7386127875258306,0A2.7386127875258306,2.7386127875258306,0,1,1,-2.7386127875258306,0A2.7386127875258306,2.7386127875258306,0,1,1,2.7386127875258306,0" stroke="rgb(170, 7, 72)" stroke-width="2" opacity="0.2"/></a><a xlink:href="https://www.youtube.com/embed/zd_JW73R1Wk"><path transform="translate(573,133.60000000000002)" d="M2.7386127875258306,0A2.7386127875258306,2.7386127875258306,0,1,1,-2.7386127875258306,0A2.7386127875258306,2.7386127875258306,0,1,1,2.7386127875258306,0" stroke="rgb(193, 15, 86)" stroke-width="2" opacity="0.2"/></a><a xlink:href="https://www.youtube.com/embed/fxg2JbWA7Nk"><path transform="translate(376.2,94.39999999999999)" d="M2.7386127875258306,0A2.7386127875258306,2.7386127875258306,0,1,1,-2.7386127875258306,0A2.7386127875258306,2.7386127875258306,0,1,1,2.7386127875258306,0" stroke="rgb(203, 21, 95)" stroke-width="2" opacity="0.2"/></a><a xlink:href="https://www.youtube.com/embed/Gf3bmQh8_dM"><path transform="translate(475.79999999999995,129.2)" d="M2.7386127875258306,0A2.7386127875258306,2.7386127875258306,0,1,1,-2.7386127875258306,0A2.7386127875258306,2.7386127875258306,0,1,1,2.7386127875258306,0" stroke="rgb(179, 10, 77)" stroke-width="2" opacity="0.2"/></a><a xlink:href="https://www.youtube.com/embed/zDtXFAc9wNA"><path transform="translate(406.20000000000005,83.19999999999999)" d="M2.7386127875258306,0A2.7386127875258306,2.7386127875258306,0,1,1,-2.7386127875258306,0A2.7386127875258306,2.7386127875258306,0,1,1,2.7386127875258306,0" stroke="rgb(214, 119, 184)" stroke-width="2" opacity="0.2"/></a><a xlink:href="https://www.youtube.com/embed/6gxRs-b9hPc"><path transform="translate(578.4000000000001,203.6)" d="M2.7386127875258306,0A2.7386127875258306,2.7386127875258306,0,1,1,-2.7386127875258306,0A2.7386127875258306,2.7386127875258306,0,1,1,2.7386127875258306,0" stroke="rgb(156, 4, 65)" stroke-width="2" opacity="0.2"/></a><a xlink:href="https://www.youtube.com/embed/eUWTDScg93c"><path transform="translate(362.4,259.6)" d="M2.7386127875258306,0A2.7386127875258306,2.7386127875258306,0,1,1,-2.7386127875258306,0A2.7386127875258306,2.7386127875258306,0,1,1,2.7386127875258306,0" stroke="rgb(157, 5, 66)" stroke-width="2" opacity="0.2"/></a><a xlink:href="https://www.youtube.com/embed/ioMuDdNPIxQ"><path transform="translate(347.4,208)" d="M2.7386127875258306,0A2.7386127875258306,2.7386127875258306,0,1,1,-2.7386127875258306,0A2.7386127875258306,2.7386127875258306,0,1,1,2.7386127875258306,0" stroke="rgb(147, 3, 60)" stroke-width="2" opacity="0.2"/></a><a xlink:href="https://www.youtube.com/embed/2mV239VN1-U"><path transform="translate(408.00000000000006,350.8)" d="M2.7386127875258306,0A2.7386127875258306,2.7386127875258306,0,1,1,-2.7386127875258306,0A2.7386127875258306,2.7386127875258306,0,1,1,2.7386127875258306,0" stroke="rgb(147, 3, 60)" stroke-width="2" opacity="0.2"/></a><a xlink:href="https://www.youtube.com/embed/ewt1uyxq5w8"><path transform="translate(243.00000000000003,239.6)" d="M2.7386127875258306,0A2.7386127875258306,2.7386127875258306,0,1,1,-2.7386127875258306,0A2.7386127875258306,2.7386127875258306,0,1,1,2.7386127875258306,0" stroke="rgb(145, 2, 59)" stroke-width="2" opacity="0.2"/></a><a xlink:href="https://www.youtube.com/embed/lhyElV4_wzU"><path transform="translate(299.4,308.8)" d="M2.7386127875258306,0A2.7386127875258306,2.7386127875258306,0,1,1,-2.7386127875258306,0A2.7386127875258306,2.7386127875258306,0,1,1,2.7386127875258306,0" stroke="rgb(171, 7, 73)" stroke-width="2" opacity="0.2"/></a><a xlink:href="https://www.youtube.com/embed/Z2aH-sluR5s"><path transform="translate(435.59999999999997,154.4)" d="M2.7386127875258306,0A2.7386127875258306,2.7386127875258306,0,1,1,-2.7386127875258306,0A2.7386127875258306,2.7386127875258306,0,1,1,2.7386127875258306,0" stroke="rgb(220, 35, 118)" stroke-width="2" opacity="0.2"/></a><a xlink:href="https://www.youtube.com/embed/MV_3Dpw-BRY"><path transform="translate(258.6,186)" d="M2.7386127875258306,0A2.7386127875258306,2.7386127875258306,0,1,1,-2.7386127875258306,0A2.7386127875258306,2.7386127875258306,0,1,1,2.7386127875258306,0" stroke="rgb(179, 10, 78)" stroke-width="2" opacity="0.2"/></a><a xlink:href="https://www.youtube.com/embed/4Jip6Fc-QO4"><path transform="translate(288,228.8)" d="M2.7386127875258306,0A2.7386127875258306,2.7386127875258306,0,1,1,-2.7386127875258306,0A2.7386127875258306,2.7386127875258306,0,1,1,2.7386127875258306,0" stroke="rgb(145, 2, 59)" stroke-width="2" opacity="0.2"/></a><a xlink:href="https://www.youtube.com/embed/Z6icW-KFudQ"><path transform="translate(110.39999999999999,270)" d="M2.7386127875258306,0A2.7386127875258306,2.7386127875258306,0,1,1,-2.7386127875258306,0A2.7386127875258306,2.7386127875258306,0,1,1,2.7386127875258306,0" stroke="rgb(161, 5, 68)" stroke-width="2" opacity="0.2"/></a><a xlink:href="https://www.youtube.com/embed/t5uAX0pyD_I"><path transform="translate(349.20000000000005,174.40000000000003)" d="M2.7386127875258306,0A2.7386127875258306,2.7386127875258306,0,1,1,-2.7386127875258306,0A2.7386127875258306,2.7386127875258306,0,1,1,2.7386127875258306,0" stroke="rgb(163, 6, 69)" stroke-width="2" opacity="0.2"/></a><a xlink:href="https://www.youtube.com/embed/RubBzkZzpUA"><path transform="translate(298.8,83.99999999999999)" d="M2.7386127875258306,0A2.7386127875258306,2.7386127875258306,0,1,1,-2.7386127875258306,0A2.7386127875258306,2.7386127875258306,0,1,1,2.7386127875258306,0" stroke="rgb(225, 73, 157)" stroke-width="2" opacity="0.2"/></a><a xlink:href="https://www.youtube.com/embed/Rgrt_8mXrK8"><path transform="translate(519,82.39999999999998)" d="M2.7386127875258306,0A2.7386127875258306,2.7386127875258306,0,1,1,-2.7386127875258306,0A2.7386127875258306,2.7386127875258306,0,1,1,2.7386127875258306,0" stroke="rgb(193, 15, 86)" stroke-width="2" opacity="0.2"/></a><a xlink:href="https://www.youtube.com/embed/NnC2MtBSdsg"><path transform="translate(546,71.60000000000002)" d="M2.7386127875258306,0A2.7386127875258306,2.7386127875258306,0,1,1,-2.7386127875258306,0A2.7386127875258306,2.7386127875258306,0,1,1,2.7386127875258306,0" stroke="rgb(198, 17, 89)" stroke-width="2" opacity="0.2"/></a><a xlink:href="https://www.youtube.com/embed/-fZ7Gb532Ew"><path transform="translate(259.20000000000005,110.00000000000001)" d="M2.7386127875258306,0A2.7386127875258306,2.7386127875258306,0,1,1,-2.7386127875258306,0A2.7386127875258306,2.7386127875258306,0,1,1,2.7386127875258306,0" stroke="rgb(221, 39, 123)" stroke-width="2" opacity="0.2"/></a><a xlink:href="https://www.youtube.com/embed/GxgqpCdOKak"><path transform="translate(207.60000000000002,93.60000000000004)" d="M2.7386127875258306,0A2.7386127875258306,2.7386127875258306,0,1,1,-2.7386127875258306,0A2.7386127875258306,2.7386127875258306,0,1,1,2.7386127875258306,0" stroke="rgb(220, 99, 173)" stroke-width="2" opacity="0.2"/></a><a xlink:href="https://www.youtube.com/embed/E2Lw9YWLVts"><path transform="translate(136.2,120.00000000000001)" d="M2.7386127875258306,0A2.7386127875258306,2.7386127875258306,0,1,1,-2.7386127875258306,0A2.7386127875258306,2.7386127875258306,0,1,1,2.7386127875258306,0" stroke="rgb(220, 36, 119)" stroke-width="2" opacity="0.2"/></a><a xlink:href="https://www.youtube.com/embed/hIqwzQ7g-Cc"><path transform="translate(256.8,188.79999999999998)" d="M2.7386127875258306,0A2.7386127875258306,2.7386127875258306,0,1,1,-2.7386127875258306,0A2.7386127875258306,2.7386127875258306,0,1,1,2.7386127875258306,0" stroke="rgb(225, 79, 161)" stroke-width="2" opacity="0.2"/></a><a xlink:href="https://www.youtube.com/embed/GxgqpCdOKak"><path transform="translate(172.2,91.19999999999999)" d="M2.7386127875258306,0A2.7386127875258306,2.7386127875258306,0,1,1,-2.7386127875258306,0A2.7386127875258306,2.7386127875258306,0,1,1,2.7386127875258306,0" stroke="rgb(216, 113, 181)" stroke-width="2" opacity="0.2"/></a><a xlink:href="https://www.youtube.com/embed/uDwVMcEHG70"><path transform="translate(99.60000000000001,262)" d="M2.7386127875258306,0A2.7386127875258306,2.7386127875258306,0,1,1,-2.7386127875258306,0A2.7386127875258306,2.7386127875258306,0,1,1,2.7386127875258306,0" stroke="rgb(208, 140, 195)" stroke-width="2" opacity="0.2"/></a><a xlink:href="https://www.youtube.com/embed/_mDxcDjg9P4"><path transform="translate(372,150.4)" d="M2.7386127875258306,0A2.7386127875258306,2.7386127875258306,0,1,1,-2.7386127875258306,0A2.7386127875258306,2.7386127875258306,0,1,1,2.7386127875258306,0" stroke="rgb(213, 27, 106)" stroke-width="2" opacity="0.2"/></a><a xlink:href="https://www.youtube.com/embed/1YWDLjvfEs4"><path transform="translate(58.08,152.4)" d="M2.7386127875258306,0A2.7386127875258306,2.7386127875258306,0,1,1,-2.7386127875258306,0A2.7386127875258306,2.7386127875258306,0,1,1,2.7386127875258306,0" stroke="rgb(209, 137, 194)" stroke-width="2" opacity="0.2"/></a><a xlink:href="https://www.youtube.com/embed/jmRI3Ew4BvA"><path transform="translate(273.6,188.39999999999998)" d="M2.7386127875258306,0A2.7386127875258306,2.7386127875258306,0,1,1,-2.7386127875258306,0A2.7386127875258306,2.7386127875258306,0,1,1,2.7386127875258306,0" stroke="rgb(151, 3, 62)" stroke-width="2" opacity="0.2"/></a><a xlink:href="https://www.youtube.com/embed/ksxbIY-EAzU"><path transform="translate(188.4,52.800000000000004)" d="M2.7386127875258306,0A2.7386127875258306,2.7386127875258306,0,1,1,-2.7386127875258306,0A2.7386127875258306,2.7386127875258306,0,1,1,2.7386127875258306,0" stroke="rgb(224, 46, 132)" stroke-width="2" opacity="0.2"/></a><a xlink:href="https://www.youtube.com/embed/I2bBZvSPpOo"><path transform="translate(298.20000000000005,117.19999999999997)" d="M2.7386127875258306,0A2.7386127875258306,2.7386127875258306,0,1,1,-2.7386127875258306,0A2.7386127875258306,2.7386127875258306,0,1,1,2.7386127875258306,0" stroke="rgb(216, 29, 109)" stroke-width="2" opacity="0.2"/></a><a xlink:href="https://www.youtube.com/embed/sWSK-3CN4Nw"><path transform="translate(223.20000000000005,160)" d="M2.7386127875258306,0A2.7386127875258306,2.7386127875258306,0,1,1,-2.7386127875258306,0A2.7386127875258306,2.7386127875258306,0,1,1,2.7386127875258306,0" stroke="rgb(193, 15, 86)" stroke-width="2" opacity="0.2"/></a><a xlink:href="https://www.youtube.com/embed/sRbnAxrS3EM"><path transform="translate(216,309.2)" d="M2.7386127875258306,0A2.7386127875258306,2.7386127875258306,0,1,1,-2.7386127875258306,0A2.7386127875258306,2.7386127875258306,0,1,1,2.7386127875258306,0" stroke="rgb(224, 44, 130)" stroke-width="2" opacity="0.2"/></a><a xlink:href="https://www.youtube.com/embed/T13se_2A7c8"><path transform="translate(105.60000000000001,290)" d="M2.7386127875258306,0A2.7386127875258306,2.7386127875258306,0,1,1,-2.7386127875258306,0A2.7386127875258306,2.7386127875258306,0,1,1,2.7386127875258306,0" stroke="rgb(208, 165, 207)" stroke-width="2" opacity="0.2"/></a><a xlink:href="https://www.youtube.com/embed/jC2ZY2loo74"><path transform="translate(357.59999999999997,101.6)" d="M2.7386127875258306,0A2.7386127875258306,2.7386127875258306,0,1,1,-2.7386127875258306,0A2.7386127875258306,2.7386127875258306,0,1,1,2.7386127875258306,0" stroke="rgb(222, 89, 167)" stroke-width="2" opacity="0.2"/></a><a xlink:href="https://www.youtube.com/embed/jfmc5pyISeE"><path transform="translate(96,82.80000000000003)" d="M2.7386127875258306,0A2.7386127875258306,2.7386127875258306,0,1,1,-2.7386127875258306,0A2.7386127875258306,2.7386127875258306,0,1,1,2.7386127875258306,0" stroke="rgb(226, 50, 138)" stroke-width="2" opacity="0.2"/></a><a xlink:href="https://www.youtube.com/embed/zUwEIt9ez7M"><path transform="translate(533.4,147.2)" d="M2.7386127875258306,0A2.7386127875258306,2.7386127875258306,0,1,1,-2.7386127875258306,0A2.7386127875258306,2.7386127875258306,0,1,1,2.7386127875258306,0" stroke="rgb(226, 57, 143)" stroke-width="2" opacity="0.2"/></a><a xlink:href="https://www.youtube.com/embed/RO_LX-m74uw"><path transform="translate(185.4,221.2)" d="M2.7386127875258306,0A2.7386127875258306,2.7386127875258306,0,1,1,-2.7386127875258306,0A2.7386127875258306,2.7386127875258306,0,1,1,2.7386127875258306,0" stroke="rgb(217, 111, 180)" stroke-width="2" opacity="0.2"/></a><a xlink:href="https://www.youtube.com/embed/JZweDwbJ_Ic"><path transform="translate(170.99999999999997,168.00000000000003)" d="M2.7386127875258306,0A2.7386127875258306,2.7386127875258306,0,1,1,-2.7386127875258306,0A2.7386127875258306,2.7386127875258306,0,1,1,2.7386127875258306,0" stroke="rgb(179, 10, 78)" stroke-width="2" opacity="0.2"/></a><a xlink:href="https://www.youtube.com/embed/vwzex56OjJ0"><path transform="translate(280.2,33.60000000000003)" d="M2.7386127875258306,0A2.7386127875258306,2.7386127875258306,0,1,1,-2.7386127875258306,0A2.7386127875258306,2.7386127875258306,0,1,1,2.7386127875258306,0" stroke="rgb(226, 61, 147)" stroke-width="2" opacity="0.2"/></a><a xlink:href="https://www.youtube.com/embed/5NV6Rdv1a3I"><path transform="translate(516,75.99999999999997)" d="M2.7386127875258306,0A2.7386127875258306,2.7386127875258306,0,1,1,-2.7386127875258306,0A2.7386127875258306,2.7386127875258306,0,1,1,2.7386127875258306,0" stroke="rgb(198, 17, 89)" stroke-width="2" opacity="0.2"/></a><a xlink:href="https://www.youtube.com/embed/_nW5AF0m9Zw"><path transform="translate(197.39999999999998,263.2)" d="M2.7386127875258306,0A2.7386127875258306,2.7386127875258306,0,1,1,-2.7386127875258306,0A2.7386127875258306,2.7386127875258306,0,1,1,2.7386127875258306,0" stroke="rgb(211, 178, 214)" stroke-width="2" opacity="0.2"/></a><a xlink:href="https://www.youtube.com/embed/MDmlLcktEI0"><path transform="translate(466.8,138.39999999999998)" d="M2.7386127875258306,0A2.7386127875258306,2.7386127875258306,0,1,1,-2.7386127875258306,0A2.7386127875258306,2.7386127875258306,0,1,1,2.7386127875258306,0" stroke="rgb(223, 43, 128)" stroke-width="2" opacity="0.2"/></a><a xlink:href="https://www.youtube.com/embed/9b9-S5EB0mw"><path transform="translate(397.20000000000005,97.60000000000004)" d="M2.7386127875258306,0A2.7386127875258306,2.7386127875258306,0,1,1,-2.7386127875258306,0A2.7386127875258306,2.7386127875258306,0,1,1,2.7386127875258306,0" stroke="rgb(217, 111, 180)" stroke-width="2" opacity="0.2"/></a><a xlink:href="https://www.youtube.com/embed/uDRLW748j68"><path transform="translate(476.40000000000003,119.60000000000002)" d="M2.7386127875258306,0A2.7386127875258306,2.7386127875258306,0,1,1,-2.7386127875258306,0A2.7386127875258306,2.7386127875258306,0,1,1,2.7386127875258306,0" stroke="rgb(199, 18, 90)" stroke-width="2" opacity="0.2"/></a><a xlink:href="https://www.youtube.com/embed/xc3lse938xA"><path transform="translate(334.20000000000005,91.19999999999999)" d="M2.7386127875258306,0A2.7386127875258306,2.7386127875258306,0,1,1,-2.7386127875258306,0A2.7386127875258306,2.7386127875258306,0,1,1,2.7386127875258306,0" stroke="rgb(226, 49, 137)" stroke-width="2" opacity="0.2"/></a><a xlink:href="https://www.youtube.com/embed/TaMxyjB_2aE"><path transform="translate(224.4,102)" d="M2.7386127875258306,0A2.7386127875258306,2.7386127875258306,0,1,1,-2.7386127875258306,0A2.7386127875258306,2.7386127875258306,0,1,1,2.7386127875258306,0" stroke="rgb(190, 14, 84)" stroke-width="2" opacity="0.2"/></a><a xlink:href="https://www.youtube.com/embed/6Mgqbai3fKo"><path transform="translate(547.8,56.39999999999996)" d="M2.7386127875258306,0A2.7386127875258306,2.7386127875258306,0,1,1,-2.7386127875258306,0A2.7386127875258306,2.7386127875258306,0,1,1,2.7386127875258306,0" stroke="rgb(206, 22, 98)" stroke-width="2" opacity="0.2"/></a><a xlink:href="https://www.youtube.com/embed/T0ivG4Ew-Lk"><path transform="translate(557.4,115.60000000000001)" d="M2.7386127875258306,0A2.7386127875258306,2.7386127875258306,0,1,1,-2.7386127875258306,0A2.7386127875258306,2.7386127875258306,0,1,1,2.7386127875258306,0" stroke="rgb(174, 8, 75)" stroke-width="2" opacity="0.2"/></a><a xlink:href="https://www.youtube.com/embed/VtVFTuIZFYU"><path transform="translate(180.6,140.79999999999998)" d="M2.7386127875258306,0A2.7386127875258306,2.7386127875258306,0,1,1,-2.7386127875258306,0A2.7386127875258306,2.7386127875258306,0,1,1,2.7386127875258306,0" stroke="rgb(186, 13, 82)" stroke-width="2" opacity="0.2"/></a><a xlink:href="https://www.youtube.com/embed/uhG-vLZrb-g&amp;list=RDuCDFm0fxprg&amp;index=12"><path transform="translate(415.20000000000005,200.4)" d="M2.7386127875258306,0A2.7386127875258306,2.7386127875258306,0,1,1,-2.7386127875258306,0A2.7386127875258306,2.7386127875258306,0,1,1,2.7386127875258306,0" stroke="rgb(189, 14, 84)" stroke-width="2" opacity="0.2"/></a><a xlink:href="https://www.youtube.com/embed/LBr7kECsjcQ"><path transform="translate(328.79999999999995,246)" d="M2.7386127875258306,0A2.7386127875258306,2.7386127875258306,0,1,1,-2.7386127875258306,0A2.7386127875258306,2.7386127875258306,0,1,1,2.7386127875258306,0" stroke="rgb(177, 9, 76)" stroke-width="2" opacity="0.2"/></a><a xlink:href="https://www.youtube.com/embed/LkIWmsP3c_s"><path transform="translate(337.20000000000005,175.59999999999997)" d="M2.7386127875258306,0A2.7386127875258306,2.7386127875258306,0,1,1,-2.7386127875258306,0A2.7386127875258306,2.7386127875258306,0,1,1,2.7386127875258306,0" stroke="rgb(158, 5, 66)" stroke-width="2" opacity="0.2"/></a><a xlink:href="https://www.youtube.com/embed/jBiQCZd8UII"><path transform="translate(319.20000000000005,154.8)" d="M2.7386127875258306,0A2.7386127875258306,2.7386127875258306,0,1,1,-2.7386127875258306,0A2.7386127875258306,2.7386127875258306,0,1,1,2.7386127875258306,0" stroke="rgb(174, 8, 75)" stroke-width="2" opacity="0.2"/></a><a xlink:href="https://www.youtube.com/embed/2VTxYQL2SbA"><path transform="translate(430.79999999999995,150.8)" d="M2.7386127875258306,0A2.7386127875258306,2.7386127875258306,0,1,1,-2.7386127875258306,0A2.7386127875258306,2.7386127875258306,0,1,1,2.7386127875258306,0" stroke="rgb(149, 3, 61)" stroke-width="2" opacity="0.2"/></a><a xlink:href="https://www.youtube.com/embed/C6MOKXm8x50"><path transform="translate(318.6,153.6)" d="M2.7386127875258306,0A2.7386127875258306,2.7386127875258306,0,1,1,-2.7386127875258306,0A2.7386127875258306,2.7386127875258306,0,1,1,2.7386127875258306,0" stroke="rgb(148, 3, 61)" stroke-width="2" opacity="0.2"/></a><a xlink:href="https://www.youtube.com/embed/GNm5drtAQXs"><path transform="translate(225.6,157.20000000000002)" d="M2.7386127875258306,0A2.7386127875258306,2.7386127875258306,0,1,1,-2.7386127875258306,0A2.7386127875258306,2.7386127875258306,0,1,1,2.7386127875258306,0" stroke="rgb(170, 7, 72)" stroke-width="2" opacity="0.2"/></a><a xlink:href="https://www.youtube.com/embed/NZKXkD6EgBk"><path transform="translate(444.6,20.000000000000018)" d="M2.7386127875258306,0A2.7386127875258306,2.7386127875258306,0,1,1,-2.7386127875258306,0A2.7386127875258306,2.7386127875258306,0,1,1,2.7386127875258306,0" stroke="rgb(216, 112, 180)" stroke-width="2" opacity="0.2"/></a><a xlink:href="https://www.youtube.com/embed/vp8VZe5kqEM"><path transform="translate(323.40000000000003,121.60000000000002)" d="M2.7386127875258306,0A2.7386127875258306,2.7386127875258306,0,1,1,-2.7386127875258306,0A2.7386127875258306,2.7386127875258306,0,1,1,2.7386127875258306,0" stroke="rgb(224, 82, 163)" stroke-width="2" opacity="0.2"/></a><a xlink:href="https://www.youtube.com/embed/8j9zMok6two"><path transform="translate(235.20000000000002,174.00000000000003)" d="M2.7386127875258306,0A2.7386127875258306,2.7386127875258306,0,1,1,-2.7386127875258306,0A2.7386127875258306,2.7386127875258306,0,1,1,2.7386127875258306,0" stroke="rgb(200, 19, 92)" stroke-width="2" opacity="0.2"/></a><a xlink:href="https://www.youtube.com/embed/5f_JiibvQAM"><path transform="translate(403.79999999999995,98.4)" d="M2.7386127875258306,0A2.7386127875258306,2.7386127875258306,0,1,1,-2.7386127875258306,0A2.7386127875258306,2.7386127875258306,0,1,1,2.7386127875258306,0" stroke="rgb(205, 22, 97)" stroke-width="2" opacity="0.2"/></a><a xlink:href="https://www.youtube.com/embed/l4me7LlSTVw"><path transform="translate(57.06,234)" d="M2.7386127875258306,0A2.7386127875258306,2.7386127875258306,0,1,1,-2.7386127875258306,0A2.7386127875258306,2.7386127875258306,0,1,1,2.7386127875258306,0" stroke="rgb(212, 124, 187)" stroke-width="2" opacity="0.2"/></a><a xlink:href="https://www.youtube.com/embed/xvZqHgFz51I"><path transform="translate(171.60000000000002,66.80000000000001)" d="M2.7386127875258306,0A2.7386127875258306,2.7386127875258306,0,1,1,-2.7386127875258306,0A2.7386127875258306,2.7386127875258306,0,1,1,2.7386127875258306,0" stroke="rgb(218, 105, 177)" stroke-width="2" opacity="0.2"/></a><a xlink:href="https://www.youtube.com/embed/dPI-mRFEIH0"><path transform="translate(324,78.80000000000003)" d="M2.7386127875258306,0A2.7386127875258306,2.7386127875258306,0,1,1,-2.7386127875258306,0A2.7386127875258306,2.7386127875258306,0,1,1,2.7386127875258306,0" stroke="rgb(198, 17, 89)" stroke-width="2" opacity="0.2"/></a><a xlink:href="https://www.youtube.com/embed/tgvbhxb9yk8"><path transform="translate(145.2,187.2)" d="M2.7386127875258306,0A2.7386127875258306,2.7386127875258306,0,1,1,-2.7386127875258306,0A2.7386127875258306,2.7386127875258306,0,1,1,2.7386127875258306,0" stroke="rgb(201, 19, 93)" stroke-width="2" opacity="0.2"/></a><a xlink:href="https://www.youtube.com/embed/PMivT7MJ41M"><path transform="translate(511.8,58.80000000000001)" d="M2.7386127875258306,0A2.7386127875258306,2.7386127875258306,0,1,1,-2.7386127875258306,0A2.7386127875258306,2.7386127875258306,0,1,1,2.7386127875258306,0" stroke="rgb(225, 65, 150)" stroke-width="2" opacity="0.2"/></a><a xlink:href="https://www.youtube.com/embed/COz9lDCFHjw"><path transform="translate(223.20000000000005,78.39999999999998)" d="M2.7386127875258306,0A2.7386127875258306,2.7386127875258306,0,1,1,-2.7386127875258306,0A2.7386127875258306,2.7386127875258306,0,1,1,2.7386127875258306,0" stroke="rgb(220, 97, 172)" stroke-width="2" opacity="0.2"/></a><a xlink:href="https://www.youtube.com/embed/T3E9Wjbq44E"><path transform="translate(474.59999999999997,141.60000000000002)" d="M2.7386127875258306,0A2.7386127875258306,2.7386127875258306,0,1,1,-2.7386127875258306,0A2.7386127875258306,2.7386127875258306,0,1,1,2.7386127875258306,0" stroke="rgb(198, 17, 89)" stroke-width="2" opacity="0.2"/></a><a xlink:href="https://www.youtube.com/embed/Hn4Mc_BUMzQ"><path transform="translate(182.4,213.19999999999996)" d="M2.7386127875258306,0A2.7386127875258306,2.7386127875258306,0,1,1,-2.7386127875258306,0A2.7386127875258306,2.7386127875258306,0,1,1,2.7386127875258306,0" stroke="rgb(225, 63, 149)" stroke-width="2" opacity="0.2"/></a><a xlink:href="https://www.youtube.com/embed/JRfuAukYTKg"><path transform="translate(152.4,160.4)" d="M2.7386127875258306,0A2.7386127875258306,2.7386127875258306,0,1,1,-2.7386127875258306,0A2.7386127875258306,2.7386127875258306,0,1,1,2.7386127875258306,0" stroke="rgb(195, 16, 87)" stroke-width="2" opacity="0.2"/></a><a xlink:href="https://www.youtube.com/embed/t5Sd5c4o9UM"><path transform="translate(461.40000000000003,152)" d="M2.7386127875258306,0A2.7386127875258306,2.7386127875258306,0,1,1,-2.7386127875258306,0A2.7386127875258306,2.7386127875258306,0,1,1,2.7386127875258306,0" stroke="rgb(176, 9, 76)" stroke-width="2" opacity="0.2"/></a><a xlink:href="https://www.youtube.com/embed/Wa5B22KAkEk"><path transform="translate(334.20000000000005,114.00000000000001)" d="M2.7386127875258306,0A2.7386127875258306,2.7386127875258306,0,1,1,-2.7386127875258306,0A2.7386127875258306,2.7386127875258306,0,1,1,2.7386127875258306,0" stroke="rgb(222, 40, 124)" stroke-width="2" opacity="0.2"/></a><a xlink:href="https://www.youtube.com/embed/EHkozMIXZ8w"><path transform="translate(361.2,85.60000000000004)" d="M2.7386127875258306,0A2.7386127875258306,2.7386127875258306,0,1,1,-2.7386127875258306,0A2.7386127875258306,2.7386127875258306,0,1,1,2.7386127875258306,0" stroke="rgb(179, 10, 78)" stroke-width="2" opacity="0.2"/></a><a xlink:href="https://www.youtube.com/embed/iP6XpLQM2Cs"><path transform="translate(431.40000000000003,98)" d="M2.7386127875258306,0A2.7386127875258306,2.7386127875258306,0,1,1,-2.7386127875258306,0A2.7386127875258306,2.7386127875258306,0,1,1,2.7386127875258306,0" stroke="rgb(187, 13, 82)" stroke-width="2" opacity="0.2"/></a><a xlink:href="https://www.youtube.com/embed/EgT_us6AsDg"><path transform="translate(525,56.39999999999996)" d="M2.7386127875258306,0A2.7386127875258306,2.7386127875258306,0,1,1,-2.7386127875258306,0A2.7386127875258306,2.7386127875258306,0,1,1,2.7386127875258306,0" stroke="rgb(218, 31, 113)" stroke-width="2" opacity="0.2"/></a><a xlink:href="https://www.youtube.com/embed/mIIN_SGQy9c"><path transform="translate(478.20000000000005,76.39999999999998)" d="M2.7386127875258306,0A2.7386127875258306,2.7386127875258306,0,1,1,-2.7386127875258306,0A2.7386127875258306,2.7386127875258306,0,1,1,2.7386127875258306,0" stroke="rgb(224, 45, 132)" stroke-width="2" opacity="0.2"/></a><a xlink:href="https://www.youtube.com/embed/NmugSMBh_iI"><path transform="translate(508.2,102)" d="M2.7386127875258306,0A2.7386127875258306,2.7386127875258306,0,1,1,-2.7386127875258306,0A2.7386127875258306,2.7386127875258306,0,1,1,2.7386127875258306,0" stroke="rgb(215, 28, 108)" stroke-width="2" opacity="0.2"/></a><a xlink:href="https://www.youtube.com/embed/CvBfHwUxHIk"><path transform="translate(336.6,168.4)" d="M2.7386127875258306,0A2.7386127875258306,2.7386127875258306,0,1,1,-2.7386127875258306,0A2.7386127875258306,2.7386127875258306,0,1,1,2.7386127875258306,0" stroke="rgb(190, 14, 84)" stroke-width="2" opacity="0.2"/></a><a xlink:href="https://www.youtube.com/embed/5NV6Rdv1a3I"><path transform="translate(516,75.99999999999997)" d="M2.7386127875258306,0A2.7386127875258306,2.7386127875258306,0,1,1,-2.7386127875258306,0A2.7386127875258306,2.7386127875258306,0,1,1,2.7386127875258306,0" stroke="rgb(198, 17, 89)" stroke-width="2" opacity="0.2"/></a><a xlink:href="https://www.youtube.com/embed/X9Te5aaEeH8"><path transform="translate(168.60000000000002,223.59999999999997)" d="M2.7386127875258306,0A2.7386127875258306,2.7386127875258306,0,1,1,-2.7386127875258306,0A2.7386127875258306,2.7386127875258306,0,1,1,2.7386127875258306,0" stroke="rgb(176, 9, 76)" stroke-width="2" opacity="0.2"/></a><a xlink:href="https://www.youtube.com/embed/VWOc39wC5-8"><path transform="translate(348.59999999999997,229.2)" d="M2.7386127875258306,0A2.7386127875258306,2.7386127875258306,0,1,1,-2.7386127875258306,0A2.7386127875258306,2.7386127875258306,0,1,1,2.7386127875258306,0" stroke="rgb(178, 10, 77)" stroke-width="2" opacity="0.2"/></a><a xlink:href="https://www.youtube.com/embed/bpOSxM0rNPM"><path transform="translate(256.8,180.80000000000004)" d="M2.7386127875258306,0A2.7386127875258306,2.7386127875258306,0,1,1,-2.7386127875258306,0A2.7386127875258306,2.7386127875258306,0,1,1,2.7386127875258306,0" stroke="rgb(225, 73, 157)" stroke-width="2" opacity="0.2"/></a><a xlink:href="https://www.youtube.com/embed/-zzP29emgpg"><path transform="translate(173.39999999999998,121.19999999999997)" d="M2.7386127875258306,0A2.7386127875258306,2.7386127875258306,0,1,1,-2.7386127875258306,0A2.7386127875258306,2.7386127875258306,0,1,1,2.7386127875258306,0" stroke="rgb(225, 75, 158)" stroke-width="2" opacity="0.2"/></a><a xlink:href="https://www.youtube.com/embed/2RrhwDKw-j4"><path transform="translate(282.6,121.60000000000002)" d="M2.7386127875258306,0A2.7386127875258306,2.7386127875258306,0,1,1,-2.7386127875258306,0A2.7386127875258306,2.7386127875258306,0,1,1,2.7386127875258306,0" stroke="rgb(225, 77, 160)" stroke-width="2" opacity="0.2"/></a><a xlink:href="https://www.youtube.com/embed/eCGV26aj-mM"><path transform="translate(338.4,198.4)" d="M2.7386127875258306,0A2.7386127875258306,2.7386127875258306,0,1,1,-2.7386127875258306,0A2.7386127875258306,2.7386127875258306,0,1,1,2.7386127875258306,0" stroke="rgb(216, 30, 110)" stroke-width="2" opacity="0.2"/></a><a xlink:href="https://www.youtube.com/embed/9nfVWiXY3WY"><path transform="translate(247.79999999999998,42.39999999999999)" d="M2.7386127875258306,0A2.7386127875258306,2.7386127875258306,0,1,1,-2.7386127875258306,0A2.7386127875258306,2.7386127875258306,0,1,1,2.7386127875258306,0" stroke="rgb(207, 148, 199)" stroke-width="2" opacity="0.2"/></a><a xlink:href="https://www.youtube.com/embed/oigcRpBOoZk"><path transform="translate(108.60000000000001,138.79999999999998)" d="M2.7386127875258306,0A2.7386127875258306,2.7386127875258306,0,1,1,-2.7386127875258306,0A2.7386127875258306,2.7386127875258306,0,1,1,2.7386127875258306,0" stroke="rgb(216, 113, 181)" stroke-width="2" opacity="0.2"/></a><a xlink:href="https://www.youtube.com/embed/vHU6ZRQJ50Q"><path transform="translate(186,44.39999999999999)" d="M2.7386127875258306,0A2.7386127875258306,2.7386127875258306,0,1,1,-2.7386127875258306,0A2.7386127875258306,2.7386127875258306,0,1,1,2.7386127875258306,0" stroke="rgb(215, 117, 183)" stroke-width="2" opacity="0.2"/></a><a xlink:href="https://www.youtube.com/embed/LnnyQcRbwEI"><path transform="translate(20.88,131.99999999999997)" d="M2.7386127875258306,0A2.7386127875258306,2.7386127875258306,0,1,1,-2.7386127875258306,0A2.7386127875258306,2.7386127875258306,0,1,1,2.7386127875258306,0" stroke="rgb(198, 17, 89)" stroke-width="2" opacity="0.2"/></a><a xlink:href="https://www.youtube.com/embed/weeI1G46q0o"><path transform="translate(486.59999999999997,160.4)" d="M2.7386127875258306,0A2.7386127875258306,2.7386127875258306,0,1,1,-2.7386127875258306,0A2.7386127875258306,2.7386127875258306,0,1,1,2.7386127875258306,0" stroke="rgb(220, 37, 121)" stroke-width="2" opacity="0.2"/></a><a xlink:href="https://www.youtube.com/embed/rKzFy2vV6_E"><path transform="translate(245.99999999999997,154)" d="M2.7386127875258306,0A2.7386127875258306,2.7386127875258306,0,1,1,-2.7386127875258306,0A2.7386127875258306,2.7386127875258306,0,1,1,2.7386127875258306,0" stroke="rgb(223, 43, 129)" stroke-width="2" opacity="0.2"/></a><a xlink:href="https://www.youtube.com/embed/UJtFM69pz80"><path transform="translate(485.40000000000003,123.19999999999997)" d="M2.7386127875258306,0A2.7386127875258306,2.7386127875258306,0,1,1,-2.7386127875258306,0A2.7386127875258306,2.7386127875258306,0,1,1,2.7386127875258306,0" stroke="rgb(168, 6, 71)" stroke-width="2" opacity="0.2"/></a><a xlink:href="https://www.youtube.com/embed/uC2TFiQJ-Mw"><path transform="translate(388.2,163.19999999999996)" d="M2.7386127875258306,0A2.7386127875258306,2.7386127875258306,0,1,1,-2.7386127875258306,0A2.7386127875258306,2.7386127875258306,0,1,1,2.7386127875258306,0" stroke="rgb(204, 21, 96)" stroke-width="2" opacity="0.2"/></a><a xlink:href="https://www.youtube.com/embed/iGk5fR-t5AU"><path transform="translate(318.6,65.60000000000001)" d="M2.7386127875258306,0A2.7386127875258306,2.7386127875258306,0,1,1,-2.7386127875258306,0A2.7386127875258306,2.7386127875258306,0,1,1,2.7386127875258306,0" stroke="rgb(215, 29, 109)" stroke-width="2" opacity="0.2"/></a><a xlink:href="https://www.youtube.com/embed/Z0wBrJHd9-A"><path transform="translate(373.2,60.80000000000001)" d="M2.7386127875258306,0A2.7386127875258306,2.7386127875258306,0,1,1,-2.7386127875258306,0A2.7386127875258306,2.7386127875258306,0,1,1,2.7386127875258306,0" stroke="rgb(221, 95, 171)" stroke-width="2" opacity="0.2"/></a><a xlink:href="https://www.youtube.com/embed/LWWw3ab5wuk"><path transform="translate(53.16,330.79999999999995)" d="M2.7386127875258306,0A2.7386127875258306,2.7386127875258306,0,1,1,-2.7386127875258306,0A2.7386127875258306,2.7386127875258306,0,1,1,2.7386127875258306,0" stroke="rgb(220, 201, 226)" stroke-width="2" opacity="0.2"/></a><a xlink:href="https://www.youtube.com/embed/vxsFpDujhk0"><path transform="translate(44.63999999999999,140.39999999999998)" d="M2.7386127875258306,0A2.7386127875258306,2.7386127875258306,0,1,1,-2.7386127875258306,0A2.7386127875258306,2.7386127875258306,0,1,1,2.7386127875258306,0" stroke="rgb(216, 29, 110)" stroke-width="2" opacity="0.2"/></a><a xlink:href="https://www.youtube.com/embed/ytQ5CYE1VZw"><path transform="translate(59.7,171.2)" d="M2.7386127875258306,0A2.7386127875258306,2.7386127875258306,0,1,1,-2.7386127875258306,0A2.7386127875258306,2.7386127875258306,0,1,1,2.7386127875258306,0" stroke="rgb(181, 11, 79)" stroke-width="2" opacity="0.2"/></a><a xlink:href="https://www.youtube.com/embed/yvHYWD29ZNY"><path transform="translate(219,56.800000000000004)" d="M2.7386127875258306,0A2.7386127875258306,2.7386127875258306,0,1,1,-2.7386127875258306,0A2.7386127875258306,2.7386127875258306,0,1,1,2.7386127875258306,0" stroke="rgb(218, 31, 113)" stroke-width="2" opacity="0.2"/></a><a xlink:href="https://www.youtube.com/embed/H5NqIsnyTG8"><path transform="translate(337.79999999999995,176.40000000000003)" d="M2.7386127875258306,0A2.7386127875258306,2.7386127875258306,0,1,1,-2.7386127875258306,0A2.7386127875258306,2.7386127875258306,0,1,1,2.7386127875258306,0" stroke="rgb(168, 6, 71)" stroke-width="2" opacity="0.2"/></a><a xlink:href="https://www.youtube.com/embed/RF0HhrwIwp0"><path transform="translate(219,183.2)" d="M2.7386127875258306,0A2.7386127875258306,2.7386127875258306,0,1,1,-2.7386127875258306,0A2.7386127875258306,2.7386127875258306,0,1,1,2.7386127875258306,0" stroke="rgb(165, 6, 70)" stroke-width="2" opacity="0.2"/></a><a xlink:href="https://www.youtube.com/embed/XatXy6ZhKZw"><path transform="translate(289.20000000000005,120.00000000000001)" d="M2.7386127875258306,0A2.7386127875258306,2.7386127875258306,0,1,1,-2.7386127875258306,0A2.7386127875258306,2.7386127875258306,0,1,1,2.7386127875258306,0" stroke="rgb(215, 28, 108)" stroke-width="2" opacity="0.2"/></a><a xlink:href="https://www.youtube.com/embed/69fx7n-D_nU"><path transform="translate(294,50.8)" d="M2.7386127875258306,0A2.7386127875258306,2.7386127875258306,0,1,1,-2.7386127875258306,0A2.7386127875258306,2.7386127875258306,0,1,1,2.7386127875258306,0" stroke="rgb(226, 55, 142)" stroke-width="2" opacity="0.2"/></a><a xlink:href="https://www.youtube.com/embed/v2xLmhAo4NE"><path transform="translate(550.8,108.39999999999996)" d="M2.7386127875258306,0A2.7386127875258306,2.7386127875258306,0,1,1,-2.7386127875258306,0A2.7386127875258306,2.7386127875258306,0,1,1,2.7386127875258306,0" stroke="rgb(162, 5, 68)" stroke-width="2" opacity="0.2"/></a><a xlink:href="https://www.youtube.com/embed/UFX3gQHIroU"><path transform="translate(408.59999999999997,74.00000000000003)" d="M2.7386127875258306,0A2.7386127875258306,2.7386127875258306,0,1,1,-2.7386127875258306,0A2.7386127875258306,2.7386127875258306,0,1,1,2.7386127875258306,0" stroke="rgb(153, 4, 63)" stroke-width="2" opacity="0.2"/></a><a xlink:href="https://www.youtube.com/embed/c6rP-YP4c5I"><path transform="translate(291.59999999999997,118.39999999999998)" d="M2.7386127875258306,0A2.7386127875258306,2.7386127875258306,0,1,1,-2.7386127875258306,0A2.7386127875258306,2.7386127875258306,0,1,1,2.7386127875258306,0" stroke="rgb(226, 51, 139)" stroke-width="2" opacity="0.2"/></a><a xlink:href="https://www.youtube.com/embed/XuvF7HF_kLM"><path transform="translate(258.6,146)" d="M2.7386127875258306,0A2.7386127875258306,2.7386127875258306,0,1,1,-2.7386127875258306,0A2.7386127875258306,2.7386127875258306,0,1,1,2.7386127875258306,0" stroke="rgb(143, 2, 58)" stroke-width="2" opacity="0.2"/></a><a xlink:href="https://www.youtube.com/embed/Zi_XLOBDo_Y"><path transform="translate(513.6,31.999999999999986)" d="M2.7386127875258306,0A2.7386127875258306,2.7386127875258306,0,1,1,-2.7386127875258306,0A2.7386127875258306,2.7386127875258306,0,1,1,2.7386127875258306,0" stroke="rgb(222, 40, 125)" stroke-width="2" opacity="0.2"/></a><a xlink:href="https://www.youtube.com/watch/oRdxUFDoQe0"><path transform="translate(550.8,88.39999999999999)" d="M2.7386127875258306,0A2.7386127875258306,2.7386127875258306,0,1,1,-2.7386127875258306,0A2.7386127875258306,2.7386127875258306,0,1,1,2.7386127875258306,0" stroke="rgb(176, 9, 76)" stroke-width="2" opacity="0.2"/></a><a xlink:href="https://www.youtube.com/embed/F2AitTPI5U0"><path transform="translate(571.8,96.8)" d="M2.7386127875258306,0A2.7386127875258306,2.7386127875258306,0,1,1,-2.7386127875258306,0A2.7386127875258306,2.7386127875258306,0,1,1,2.7386127875258306,0" stroke="rgb(158, 5, 66)" stroke-width="2" opacity="0.2"/></a><a xlink:href="https://www.youtube.com/embed/HzZ_urpj4As"><path transform="translate(298.20000000000005,156.8)" d="M2.7386127875258306,0A2.7386127875258306,2.7386127875258306,0,1,1,-2.7386127875258306,0A2.7386127875258306,2.7386127875258306,0,1,1,2.7386127875258306,0" stroke="rgb(192, 15, 85)" stroke-width="2" opacity="0.2"/></a><a xlink:href="https://www.youtube.com/embed/PivWY9wn5ps"><path transform="translate(160.8,82.39999999999998)" d="M2.7386127875258306,0A2.7386127875258306,2.7386127875258306,0,1,1,-2.7386127875258306,0A2.7386127875258306,2.7386127875258306,0,1,1,2.7386127875258306,0" stroke="rgb(197, 17, 88)" stroke-width="2" opacity="0.2"/></a><a xlink:href="https://www.youtube.com/embed/1ZZQuj6htF4"><path transform="translate(576,44.8)" d="M2.7386127875258306,0A2.7386127875258306,2.7386127875258306,0,1,1,-2.7386127875258306,0A2.7386127875258306,2.7386127875258306,0,1,1,2.7386127875258306,0" stroke="rgb(192, 15, 85)" stroke-width="2" opacity="0.2"/></a><a xlink:href="https://www.youtube.com/embed/aN5s9N_pTUs"><path transform="translate(276.6,181.6)" d="M2.7386127875258306,0A2.7386127875258306,2.7386127875258306,0,1,1,-2.7386127875258306,0A2.7386127875258306,2.7386127875258306,0,1,1,2.7386127875258306,0" stroke="rgb(205, 22, 97)" stroke-width="2" opacity="0.2"/></a><a xlink:href="https://www.youtube.com/embed/6NXnxTNIWkc"><path transform="translate(305.4,175.59999999999997)" d="M2.7386127875258306,0A2.7386127875258306,2.7386127875258306,0,1,1,-2.7386127875258306,0A2.7386127875258306,2.7386127875258306,0,1,1,2.7386127875258306,0" stroke="rgb(225, 66, 151)" stroke-width="2" opacity="0.2"/></a><a xlink:href="https://www.youtube.com/embed/NdYWuo9OFAw"><path transform="translate(295.8,283.59999999999997)" d="M2.7386127875258306,0A2.7386127875258306,2.7386127875258306,0,1,1,-2.7386127875258306,0A2.7386127875258306,2.7386127875258306,0,1,1,2.7386127875258306,0" stroke="rgb(199, 18, 90)" stroke-width="2" opacity="0.2"/></a><a xlink:href="https://www.youtube.com/embed/fgT9zGkiLig"><path transform="translate(400.79999999999995,144.4)" d="M2.7386127875258306,0A2.7386127875258306,2.7386127875258306,0,1,1,-2.7386127875258306,0A2.7386127875258306,2.7386127875258306,0,1,1,2.7386127875258306,0" stroke="rgb(182, 11, 79)" stroke-width="2" opacity="0.2"/></a><a xlink:href="https://www.youtube.com/embed/CXLH8qIF7vI"><path transform="translate(525.5999999999999,92.8)" d="M2.7386127875258306,0A2.7386127875258306,2.7386127875258306,0,1,1,-2.7386127875258306,0A2.7386127875258306,2.7386127875258306,0,1,1,2.7386127875258306,0" stroke="rgb(177, 9, 77)" stroke-width="2" opacity="0.2"/></a><a xlink:href="https://www.youtube.com/embed/1VQ_3sBZEm0"><path transform="translate(309.6,224.39999999999998)" d="M2.7386127875258306,0A2.7386127875258306,2.7386127875258306,0,1,1,-2.7386127875258306,0A2.7386127875258306,2.7386127875258306,0,1,1,2.7386127875258306,0" stroke="rgb(157, 5, 66)" stroke-width="2" opacity="0.2"/></a><a xlink:href="https://www.youtube.com/embed/LeiFF0gvqcc"><path transform="translate(484.79999999999995,67.60000000000002)" d="M2.7386127875258306,0A2.7386127875258306,2.7386127875258306,0,1,1,-2.7386127875258306,0A2.7386127875258306,2.7386127875258306,0,1,1,2.7386127875258306,0" stroke="rgb(160, 5, 67)" stroke-width="2" opacity="0.2"/></a><a xlink:href="https://www.youtube.com/embed/uvjTo-hRD5c"><path transform="translate(454.8,151.2)" d="M2.7386127875258306,0A2.7386127875258306,2.7386127875258306,0,1,1,-2.7386127875258306,0A2.7386127875258306,2.7386127875258306,0,1,1,2.7386127875258306,0" stroke="rgb(218, 32, 114)" stroke-width="2" opacity="0.2"/></a><a xlink:href="https://www.youtube.com/embed/DUT5rEU6pqM"><path transform="translate(460.2,88.79999999999998)" d="M2.7386127875258306,0A2.7386127875258306,2.7386127875258306,0,1,1,-2.7386127875258306,0A2.7386127875258306,2.7386127875258306,0,1,1,2.7386127875258306,0" stroke="rgb(189, 14, 84)" stroke-width="2" opacity="0.2"/></a><a xlink:href="https://www.youtube.com/embed/yd8jh9QYfEs"><path transform="translate(334.79999999999995,58.80000000000001)" d="M2.7386127875258306,0A2.7386127875258306,2.7386127875258306,0,1,1,-2.7386127875258306,0A2.7386127875258306,2.7386127875258306,0,1,1,2.7386127875258306,0" stroke="rgb(220, 35, 119)" stroke-width="2" opacity="0.2"/></a><a xlink:href="https://www.youtube.com/embed/KlyXNRrsk4A"><path transform="translate(464.40000000000003,140.39999999999998)" d="M2.7386127875258306,0A2.7386127875258306,2.7386127875258306,0,1,1,-2.7386127875258306,0A2.7386127875258306,2.7386127875258306,0,1,1,2.7386127875258306,0" stroke="rgb(192, 15, 85)" stroke-width="2" opacity="0.2"/></a><a xlink:href="https://www.youtube.com/embed/weRHyjj34ZE"><path transform="translate(515.4000000000001,82.80000000000003)" d="M2.7386127875258306,0A2.7386127875258306,2.7386127875258306,0,1,1,-2.7386127875258306,0A2.7386127875258306,2.7386127875258306,0,1,1,2.7386127875258306,0" stroke="rgb(187, 13, 82)" stroke-width="2" opacity="0.2"/></a><a xlink:href="https://www.youtube.com/embed/bESGLojNYSo"><path transform="translate(461.40000000000003,59.60000000000001)" d="M2.7386127875258306,0A2.7386127875258306,2.7386127875258306,0,1,1,-2.7386127875258306,0A2.7386127875258306,2.7386127875258306,0,1,1,2.7386127875258306,0" stroke="rgb(194, 16, 87)" stroke-width="2" opacity="0.2"/></a><a xlink:href="https://www.youtube.com/embed/5NPBIwQyPWE"><path transform="translate(258,166)" d="M2.7386127875258306,0A2.7386127875258306,2.7386127875258306,0,1,1,-2.7386127875258306,0A2.7386127875258306,2.7386127875258306,0,1,1,2.7386127875258306,0" stroke="rgb(202, 20, 93)" stroke-width="2" opacity="0.2"/></a><a xlink:href="https://www.youtube.com/embed/DN6It52dsmY"><path transform="translate(85.19999999999999,195.6)" d="M2.7386127875258306,0A2.7386127875258306,2.7386127875258306,0,1,1,-2.7386127875258306,0A2.7386127875258306,2.7386127875258306,0,1,1,2.7386127875258306,0" stroke="rgb(220, 99, 173)" stroke-width="2" opacity="0.2"/></a><a xlink:href="https://www.youtube.com/embed/Siz-xBfIqpg"><path transform="translate(23.04,226.79999999999998)" d="M2.7386127875258306,0A2.7386127875258306,2.7386127875258306,0,1,1,-2.7386127875258306,0A2.7386127875258306,2.7386127875258306,0,1,1,2.7386127875258306,0" stroke="rgb(212, 126, 188)" stroke-width="2" opacity="0.2"/></a><a xlink:href="https://www.youtube.com/embed/w69cBHRso5M"><path transform="translate(439.8,16.39999999999997)" d="M2.7386127875258306,0A2.7386127875258306,2.7386127875258306,0,1,1,-2.7386127875258306,0A2.7386127875258306,2.7386127875258306,0,1,1,2.7386127875258306,0" stroke="rgb(225, 69, 154)" stroke-width="2" opacity="0.2"/></a><a xlink:href="https://www.youtube.com/embed/_1hgVcNzvzY"><path transform="translate(410.40000000000003,153.6)" d="M2.7386127875258306,0A2.7386127875258306,2.7386127875258306,0,1,1,-2.7386127875258306,0A2.7386127875258306,2.7386127875258306,0,1,1,2.7386127875258306,0" stroke="rgb(164, 6, 69)" stroke-width="2" opacity="0.2"/></a><a xlink:href="https://www.youtube.com/embed/jtleKo36I7k"><path transform="translate(312,221.60000000000002)" d="M2.7386127875258306,0A2.7386127875258306,2.7386127875258306,0,1,1,-2.7386127875258306,0A2.7386127875258306,2.7386127875258306,0,1,1,2.7386127875258306,0" stroke="rgb(204, 21, 96)" stroke-width="2" opacity="0.2"/></a><a xlink:href="https://www.youtube.com/embed/BxgeSv88c2w"><path transform="translate(369,154.4)" d="M2.7386127875258306,0A2.7386127875258306,2.7386127875258306,0,1,1,-2.7386127875258306,0A2.7386127875258306,2.7386127875258306,0,1,1,2.7386127875258306,0" stroke="rgb(175, 8, 75)" stroke-width="2" opacity="0.2"/></a><a xlink:href="https://www.youtube.com/embed/lrXIQQ8PeRs"><path transform="translate(330,206)" d="M2.7386127875258306,0A2.7386127875258306,2.7386127875258306,0,1,1,-2.7386127875258306,0A2.7386127875258306,2.7386127875258306,0,1,1,2.7386127875258306,0" stroke="rgb(163, 6, 69)" stroke-width="2" opacity="0.2"/></a><a xlink:href="https://www.youtube.com/embed/76RbWuFll0Y"><path transform="translate(530.4,221.60000000000002)" d="M2.7386127875258306,0A2.7386127875258306,2.7386127875258306,0,1,1,-2.7386127875258306,0A2.7386127875258306,2.7386127875258306,0,1,1,2.7386127875258306,0" stroke="rgb(167, 6, 71)" stroke-width="2" opacity="0.2"/></a></g><g class="mark-text role-mark layer_1_marks" role="graphics-object" aria-roledescription="text mark container"><text text-anchor="middle" transform="translate(480,35.999999999999986) rotate(345) translate(0,12)" font-family="sans-serif" font-size="40px" fill="black" opacity="1"></text></g><g class="mark-text role-mark layer_2_marks" role="graphics-object" aria-roledescription="text mark container"><text text-anchor="middle" transform="translate(90,352)" font-family="sans-serif" font-size="40px" fill="black" opacity="1"></text></g><g class="mark-text role-mark layer_3_marks" role="graphics-object" aria-roledescription="text mark container"><text text-anchor="middle" transform="translate(980,45.99999999999999)" font-family="sans-serif" font-size="19px" font-weight="300" fill="black" opacity="1">Relationship Between Danceability and Valence - Spotify Dataset</text></g><g class="mark-text role-mark layer_4_marks" role="graphics-object" aria-roledescription="text mark container"><text text-anchor="middle" transform="translate(980,104)" font-family="sans-serif" font-size="12px" font-weight="200" fill="black" opacity="1">Valence: Describes the musical positiveness conveyed by a track.</text></g><g class="mark-text role-mark layer_5_marks" role="graphics-object" aria-roledescription="text mark container"><text text-anchor="middle" transform="translate(977,124)" font-family="sans-serif" font-size="12px" font-weight="200" fill="black" opacity="1">Tracks with high valence sound more positive (e.g. happy, cheerful,euphoric),</text></g><g class="mark-text role-mark layer_6_marks" role="graphics-object" aria-roledescription="text mark container"><text text-anchor="middle" transform="translate(980,144)" font-family="sans-serif" font-size="12px" font-weight="200" fill="black" opacity="1">while tracks with low valence sound more negative (e.g. sad, depressed, angry).</text></g><g class="mark-text role-mark layer_7_marks" role="graphics-object" aria-roledescription="text mark container"><text text-anchor="middle" transform="translate(980,164)" font-family="sans-serif" font-size="12px" font-weight="200" fill="black" opacity="1">Energy: Represents a perceptual measure of intensity and activity.</text></g><g class="mark-group role-legend" role="graphics-symbol" aria-roledescription="legend" aria-label="Gradient legend titled 'energy' for stroke color with values from 0.1 to 1.0"><g transform="translate(618,0)"><path class="background" aria-hidden="true" d="M0,0h37v216h-37Z" pointer-events="none"/><g><g class="mark-group role-legend-entry"><g transform="translate(0,16)"><path class="background" aria-hidden="true" d="M0,0h0v0h0Z" pointer-events="none"/><g><g class="mark-rect role-legend-gradient" pointer-events="none"><path d="M0,0h16v200h-16Z" fill="url(#gradient_0)" stroke="#ddd" stroke-width="0" opacity="0.2"/></g><g class="mark-text role-legend-label" pointer-events="none"><text text-anchor="start" transform="translate(18,172.8175062834663)" font-family="sans-serif" font-size="10px" fill="#000" opacity="1">0.2</text><text text-anchor="start" transform="translate(18,129.10643645503222)" font-family="sans-serif" font-size="10px" fill="#000" opacity="1">0.4</text><text text-anchor="start" transform="translate(18,85.39536662659819)" font-family="sans-serif" font-size="10px" fill="#000" opacity="1">0.6</text><text text-anchor="start" transform="translate(18,41.68429679816412)" font-family="sans-serif" font-size="10px" fill="#000" opacity="1">0.8</text></g></g><path class="foreground" aria-hidden="true" d="" pointer-events="none" display="none"/></g></g><g class="mark-text role-legend-title" pointer-events="none"><text text-anchor="start" transform="translate(0,9)" font-family="sans-serif" font-size="11px" font-weight="bold" fill="#000" opacity="1">energy</text></g></g><path class="foreground" aria-hidden="true" d="" pointer-events="none" display="none"/></g></g><g class="mark-group role-title"><g transform="translate(300,-22)"><path class="background" aria-hidden="true" d="M0,0h0v0h0Z" pointer-events="none"/><g><g class="mark-text role-title-text" role="graphics-symbol" aria-roledescription="title" aria-label="Title text 'Rate It Again, Sam'" pointer-events="none"><text text-anchor="middle" transform="translate(0,10)" font-family="sans-serif" font-size="13px" font-weight="bold" fill="#000" opacity="1">Rate It Again, Sam</text></g></g><path class="foreground" aria-hidden="true" d="" pointer-events="none" display="none"/></g></g></g><path class="foreground" aria-hidden="true" d="" display="none"/></g></g></g><defs><linearGradient id="gradient_0" x1="0" x2="0" y1="1" y2="0"><stop offset="0" stop-color="rgb(220, 201, 226)"/><stop offset="0.041634794011583445" stop-color="rgb(216, 192, 221)"/><stop offset="0.09627363129712599" stop-color="rgb(211, 180, 215)"/><stop offset="0.15091246858266855" stop-color="rgb(208, 168, 209)"/><stop offset="0.2055513058682111" stop-color="rgb(206, 157, 203)"/><stop offset="0.26019014315375366" stop-color="rgb(208, 144, 197)"/><stop offset="0.3148289804392962" stop-color="rgb(210, 130, 190)"/><stop offset="0.36946781772483883" stop-color="rgb(215, 115, 182)"/><stop offset="0.42410665501038136" stop-color="rgb(220, 100, 174)"/><stop offset="0.4787454922959239" stop-color="rgb(224, 83, 164)"/><stop offset="0.5333843295814665" stop-color="rgb(225, 68, 152)"/><stop offset="0.5880231668670091" stop-color="rgb(226, 52, 140)"/><stop offset="0.6426620041525517" stop-color="rgb(222, 41, 126)"/><stop offset="0.6973008414380942" stop-color="rgb(217, 31, 112)"/><stop offset="0.7519396787236368" stop-color="rgb(207, 23, 100)"/><stop offset="0.8065785160091794" stop-color="rgb(196, 16, 88)"/><stop offset="0.8612173532947219" stop-color="rgb(181, 11, 79)"/><stop offset="0.9158561905802645" stop-color="rgb(167, 6, 71)"/><stop offset="0.970495027865807" stop-color="rgb(151, 3, 62)"/><stop offset="1" stop-color="rgb(143, 2, 58)"/></linearGradient></defs></svg>